<?xml version="1.0" standalone="no"?>
<!DOCTYPE svg PUBLIC "-//W3C//DTD SVG 20010904//EN"
 "http://www.w3.org/TR/2001/REC-SVG-20010904/DTD/svg10.dtd">
<svg version="1.0" xmlns="http://www.w3.org/2000/svg"
 width="308.000000pt" height="308.000000pt" viewBox="0 0 308.000000 308.000000"
 preserveAspectRatio="xMidYMid meet">
<metadata>
Created by potrace 1.14, written by Peter Selinger 2001-2017
</metadata>
<g transform="translate(0.000000,308.000000) scale(0.100000,-0.100000)"
fill="#000000" stroke="none">
<path d="M264 2971 c-98 -24 -185 -95 -231 -189 l-28 -57 0 -1150 0 -1150 29
-58 c32 -66 101 -137 157 -163 21 -9 37 -20 34 -23 -2 -4 103 -8 233 -10 167
-2 239 -6 244 -14 6 -9 8 -9 8 1 0 6 7 12 16 12 9 0 12 -5 8 -13 -6 -9 -4 -9
7 1 7 6 36 12 65 12 33 0 54 -5 57 -12 4 -10 6 -10 6 0 1 6 8 12 17 12 9 0 12
-5 8 -12 -6 -10 -4 -10 7 0 10 9 75 12 254 12 179 0 244 -3 254 -12 11 -10 13
-10 7 0 -6 9 21 12 118 12 90 0 126 -3 129 -12 4 -10 6 -10 6 0 1 6 8 12 17
12 9 0 12 -5 8 -12 -6 -11 -4 -11 7 0 17 16 116 16 122 0 4 -10 6 -10 6 0 1 6
8 12 17 12 9 0 12 -5 8 -12 -6 -10 -5 -10 7 -1 21 17 326 18 347 1 12 -10 14
-10 9 -1 -11 17 371 17 392 0 12 -9 13 -9 7 1 -5 9 7 12 48 12 34 0 80 9 118
23 35 13 70 22 78 20 12 -4 12 -3 1 5 -10 8 -8 13 10 25 12 9 27 13 32 10 6
-3 7 -1 3 6 -4 6 0 14 8 17 9 3 13 10 10 15 -3 5 0 9 5 9 6 0 11 7 11 15 0 8
5 15 10 15 6 0 10 7 10 15 0 9 7 18 15 21 8 4 13 9 11 13 -3 4 0 27 6 52 5 24
10 90 10 147 0 75 3 100 11 95 9 -5 9 -3 1 8 -8 10 -11 286 -11 1000 0 543 -3
992 -7 998 -4 6 -2 11 5 11 7 0 8 4 2 13 -5 6 -15 30 -22 52 -28 79 -93 149
-181 193 l-55 27 -1225 2 c-674 0 -1239 -2 -1256 -6z"/>
<path d="M3015 2060 c3 -5 8 -10 11 -10 2 0 4 5 4 10 0 6 -5 10 -11 10 -5 0
-7 -4 -4 -10z"/>
<path d="M3015 780 c3 -5 8 -10 11 -10 2 0 4 5 4 10 0 6 -5 10 -11 10 -5 0 -7
-4 -4 -10z"/>
<path d="M2796 182 c-3 -5 1 -9 9 -9 8 0 12 4 9 9 -3 4 -7 8 -9 8 -2 0 -6 -4
-9 -8z"/>
<path d="M2750 156 c7 -7 13 -7 20 0 6 6 3 10 -10 10 -13 0 -16 -4 -10 -10z"/>
</g>
</svg>
